<svg width="24" height="24" viewBox="0 0 24 24" fill="none" xmlns="http://www.w3.org/2000/svg">
<path d="M1.00893 1H2.90241C3.82841 1 4.66873 1.55819 5.04742 2.37293H22.3402C23.4348 2.37293 24.2337 3.44421 23.9379 4.5606L22.2131 11.0813C21.8758 12.4542 20.6568 13.3564 19.3107 13.3564H7.15097L7.40251 14.5996C7.48544 15.0704 7.90836 15.4144 8.36998 15.4144H20.5297C21.077 15.4144 21.5386 15.8852 21.5386 16.4433C21.5386 17.0438 21.077 17.4723 20.5297 17.4723H8.37275C6.94089 17.4723 5.68042 16.4433 5.42888 14.983L3.23964 3.35963C3.19817 3.18767 3.07102 3.05799 2.90241 3.05799H1.00893C0.420158 3.05799 0 2.62947 0 2.02899C0 1.4708 0.420158 1 1.00893 1ZM7.40528 22.9697C6.64789 22.9697 6.01765 22.5835 5.63896 21.9407C5.26026 21.3402 5.26026 20.5255 5.63896 19.8799C6.01765 19.2794 6.64789 18.8509 7.40528 18.8509C8.12121 18.8509 8.75144 19.2794 9.13014 19.8799C9.50883 20.5227 9.50883 21.3374 9.13014 21.9407C8.75144 22.5835 8.12121 22.9697 7.40528 22.9697ZM21.5414 20.9089C21.5414 21.6813 21.1212 22.3241 20.5324 22.7103C19.9022 23.0966 19.1034 23.0966 18.5118 22.7103C17.8816 22.3241 17.5029 21.6813 17.5029 20.9089C17.5029 20.1787 17.8816 19.536 18.5118 19.1497C19.1006 18.7635 19.8994 18.7635 20.5324 19.1497C21.1212 19.536 21.5414 20.1787 21.5414 20.9089Z" fill="white"/>
</svg>
