<svg width="24" height="24" viewBox="0 0 24 24" fill="none" xmlns="http://www.w3.org/2000/svg">
<path d="M10.1991 14.099C11.3042 14.0476 12.6266 14.0441 13.7317 14.0903C17.8419 14.2632 21.352 17.3186 21.9202 21.3732C22.0845 22.5463 22.1348 23.8337 20.6303 24H3.36883C1.70721 23.8139 1.9264 22.1868 2.15996 20.971C2.89812 17.1275 6.25677 14.2815 10.1991 14.0985V14.099Z" fill="white"/>
<path d="M12.0034 11.4163C15.1857 11.4163 17.7654 8.86065 17.7654 5.70814C17.7654 2.55562 15.1857 0 12.0034 0C8.82112 0 6.24137 2.55562 6.24137 5.70814C6.24137 8.86065 8.82112 11.4163 12.0034 11.4163Z" fill="white"/>
</svg>
