<svg width="24" height="24" viewBox="0 0 24 24" fill="none" xmlns="http://www.w3.org/2000/svg">
<g clip-path="url(#clip0_168_90)">
<path d="M3.44802 9.64451C4.35265 9.68083 5.27209 9.59608 6.17673 9.63985C7.89432 9.72367 9.56285 10.1074 10.1258 11.9841C10.3999 12.8968 10.399 16.5868 10.0777 17.4716C9.71748 18.4607 8.52118 19.4675 7.46654 19.5829C6.53784 19.6845 3.4869 19.6975 2.63598 19.5168C1.22023 19.2169 0.215601 17.7771 0.119305 16.3819C-0.0242143 14.3106 -0.0566217 10.7174 0.12486 8.67031C0.432268 5.2029 3.86561 2.57183 7.27395 3.058C8.41469 3.22098 8.91933 4.69997 8.25081 5.60338C7.54803 6.55429 6.29895 6.11283 5.33784 6.48257C4.11561 6.9529 3.2795 8.33037 3.44802 9.64451Z" fill="#0735DC"/>
<path d="M17.1185 9.64447C18.0232 9.68079 18.9426 9.59604 19.8473 9.63981C21.6195 9.72643 23.3334 10.1707 23.8343 12.1321C24.0584 13.0085 24.0593 16.3949 23.813 17.2573C23.5056 18.3349 22.2565 19.46 21.1371 19.582C20.2019 19.6844 17.2565 19.7003 16.375 19.5391C15.0158 19.2905 13.9065 17.9326 13.7898 16.5663C13.6158 14.5275 13.6232 10.7127 13.7945 8.66935C14.0065 6.13421 15.9297 3.97627 18.3195 3.28148C19.8574 2.83537 22.6658 2.69846 22.1575 5.09762C21.8667 6.46577 20.3713 6.17053 19.4232 6.3419C17.9954 6.60082 16.9223 8.21205 17.1176 9.64354L17.1185 9.64447Z" fill="#0735DC"/>
</g>
<defs>
<clipPath id="clip0_168_90">
<rect width="24" height="24" fill="white"/>
</clipPath>
</defs>
</svg>
