<svg xmlns="http://www.w3.org/2000/svg" xmlns:xlink="http://www.w3.org/1999/xlink" id="Layer_2" data-name="Layer 2" viewBox="0 0 101.41 42.49">
  <defs>
    <style>
      .cls-1 {
        fill: none;
      }

      .cls-2 {
        fill: #ffbd14;
      }

      .cls-3 {
        fill: #ff8806;
      }

      .cls-4 {
        fill: #a6f0a5;
      }

      .cls-5 {
        fill: #ffe58a;
      }

      .cls-6 {
        fill: #3cc14e;
      }

      .cls-7 {
        fill: #f02d2d;
      }

      .cls-8 {
        clip-path: url(#clippath-1);
      }

      .cls-9 {
        fill: #fff;
      }

      .cls-10 {
        fill: #ffc382;
      }

      .cls-11 {
        fill: #ffa0a0;
      }

      .cls-12 {
        fill: #0968f6;
      }

      .cls-13 {
        clip-path: url(#clippath);
      }
    </style>
    <clipPath id="clippath">
      <rect class="cls-1" width="101.41" height="42.49"/>
    </clipPath>
    <clipPath id="clippath-1">
      <rect class="cls-1" width="101.41" height="42.49"/>
    </clipPath>
  </defs>
  <g id="Layer_1-2" data-name="Layer 1">
    <g id="tcgplayer-logo-primary-black">
      <g class="cls-13">
        <g class="cls-8">
          <path class="cls-3" d="M77.54,26.46l3.62-12.6,7.61,4.25c1.22.68,1.43,2.37.39,3.32l-4.89,4.49c-.39.35-.88.54-1.39.54h-5.33Z"/>
          <path class="cls-12" d="M62.91,0c1.13,0,2.06.93,2.06,2.06v24.42h-28.5V2.06c0-1.06.81-1.93,1.83-2.05C38.38,0,62.91,0,62.91,0"/>
          <path class="cls-7" d="M67.04,26.46h8.38l4.54-15.86c.31-1.09-.32-2.23-1.42-2.54l-11.51-3.31v21.7Z"/>
          <path class="cls-2" d="M34.14,26.46h-8.38l-4.54-15.86c-.31-1.09.32-2.23,1.42-2.54l11.51-3.31v21.7Z"/>
          <path class="cls-9" d="M50.64,22.9c-.37.54-1.21.27-1.21-.37v-5.96h-6.47c-.49,0-.81-.51-.59-.95l5.46-11.21c.12-.23.35-.37.59-.37h6.05c.49,0,.81.51.59.95l-2.63,5.39h5.55c.53,0,.85.59.54,1.03l-7.88,11.49Z"/>
          <path class="cls-6" d="M20.02,13.86l-7.61,4.25c-1.22.68-1.43,2.37-.39,3.32l4.89,4.49c.39.35.88.54,1.39.54h5.33l-3.62-12.6Z"/>
          <path class="cls-4" d="M16.12,18.14c-.33.04-.58.35-.54.68.08.6.19,1.49.33,1.96.39,1.2,1.07,2.45,1.98,3.33.81.8,1.91,1.48,3.5,1.35.63-.05,1.06-.67.81-1.26-.63-1.57-2.11-2.88-3.15-3.64-.14-.1,0-.33.15-.26,1.11.49,2.56,1.35,3.39,2.56l-1.17-4.08c-.42-.21-1.64-.77-3.42-.77-.46,0-1.31.06-1.89.13"/>
          <path class="cls-10" d="M86.2,19.6c-2.91-.68-2.93,4.26-7.14,4.4-.28,0-.27.41-.03.48,4.7,1.92,4.99-3.68,7.18-4.47.21-.08.16-.37-.01-.41"/>
          <path class="cls-10" d="M84.1,17.97c.21-.09.21-.37,0-.44-2.51-.79-2.98,2.29-5.09,3.83l-.49,1.72c3.12-.07,3.64-4.4,5.59-5.11"/>
          <path class="cls-5" d="M32.46,20.09c-1.1-.16-2.13-.81-2.69-1.78-.43-.74-.57-1.62-.41-2.46.27-1.44,1.48-2.66,2.94-2.87.62-.09,1.26-.01,1.85.21v-2.19c-.28,0-.54-.11-.77-.26-.27-.18-1.31-1.26-1.61-1.57-.1-.1-.22-.22-.37-.23-.21,0-.36.21-.44.39-.21.45-.89,2.3-1.31,2.55-.42.24-2.38.21-2.88.21-.15,0-.3.08-.39.21-.09.13-.1.28-.04.42l.86,1.93c.24.54.12,1.17-.3,1.58l-1.52,1.49c-.12.1-.15.26-.13.41.03.15.14.27.28.32l1.98.76c.55.21.91.75.91,1.33v2.11c0,.15.06.3.19.39.13.08.28.1.42.04l1.96-.86c.54-.23,1.16-.12,1.58.3.28.3,1.25,1.27,1.56,1.53v-4.11c-.55.19-1.22.24-1.68.17"/>
          <path class="cls-5" d="M30.65,14.74c-.51.62-.64,1.22-.62,1.9.06,1.6,1.42,2.82,3.01,2.74.38-.02.76-.11,1.09-.28v-5.15c-.67-.33-2.26-.72-3.49.78"/>
          <path class="cls-11" d="M69.6,15.42c.41-.28,1.03.17.81.71-.66,1.57,1.12,3.95.08,6.4-.17.39-.4.72-.68,1.02-.26.27.05.71.4.55,1.6-.72,3.18-1.81,3.86-3.42.51-1.24.56-2.32.38-3.52-.06-.42-.3-.93-.66-.72-.26.14-.79.8-1.15.6-.36-.21-.24-.57-.12-.8.19-.36.4-.77.55-1.15.89-2.1.16-4.98-.14-5.92-.2-.63-.69-.46-.85-.14-.56,1.12-1.38,1.94-2.26,2.41-.86.45-1.77.42-2.78,1.27v6.17c.88-2.66,2.16-3.19,2.56-3.45"/>
          <path class="cls-7" d="M75.42,26.46h0l4.54-15.86c.02-.07.03-.14.05-.21-.01.07-.03.14-.05.21l-4.54,15.86Z"/>
          <path class="cls-7" d="M79.99,9.6c-.16-.71-.69-1.31-1.44-1.53l-11.51-3.31h0s11.51,3.31,11.51,3.31c.75.21,1.29.81,1.44,1.53"/>
          <path class="cls-7" d="M80.01,10.4c.02-.14.03-.27.03-.41,0,.13,0,.27-.03.41"/>
          <polyline points="67.04 18.88 67.04 26.46 67.04 26.46 67.04 18.88 67.04 18.88"/>
          <polygon points="67.04 4.76 67.04 12.71 67.04 12.71 67.04 4.76 67.04 4.76"/>
          <polygon points="0 29.89 0 32.79 3.47 32.79 3.47 42.24 7.37 42.24 7.37 32.79 10.84 32.79 10.84 29.89 0 29.89"/>
          <path d="M19.39,39.15c-2.94-.03-3.82.73-3.78-3.08.05-1.15-.06-2.23.58-2.85.56-.44,3.89-.25,4.74-.23l.29-2.83c-2.13-.59-5.47-.78-7.37.14-2.09,1.13-2.27,3.23-2.34,5.77.07,2.53.26,4.65,2.34,5.77,1.95.94,5.55.74,7.64.03l-.29-2.83c-.6.06-1.2.1-1.81.12h0Z"/>
          <path d="M43.76,30.08c-.74-.24-1.77-.37-3.09-.37-1.98,0-3.38-.02-5.25.18v12.34h3.9v-4.26c2,.17,5.12.42,6.05-1.53.29-.6.44-1.44.44-2.53-.04-1.89-.3-3.23-2.05-3.84h0ZM41.8,34.81c-.21.53-.64.52-1.22.55,0,0-1.26,0-1.26,0v-2.9c.7.08,2.21-.29,2.48.56.14.37.14,1.43,0,1.8h0Z"/>
          <path d="M51.1,38.98c-.14-.12-.21-.28-.21-.47v-8.62h-3.9v9.61c.13,3.4,4.26,2.98,6.71,2.84,1-.02,1.28-2.39,1.53-3.18h-3.58c-.23,0-.41-.06-.55-.18"/>
          <path d="M64.85,30.16c-.24-.18-.51-.27-.83-.27h-3.54c-.31,0-.59.09-.83.27-.24.18-.4.42-.49.73l-3.22,11.34h3.97l.62-2.66h3.42l.62,2.66h3.97l-3.22-11.34c-.09-.31-.24-.56-.49-.73h0ZM61.17,36.85c.22-.97.83-4.06.83-4.06h.49s.62,3.1.83,4.06h-2.15Z"/>
          <path d="M73.25,35.51h-.23c-.05-.28-1.94-5.62-1.94-5.62h-4.01l4.12,8.53v3.82h3.9v-3.85l4.1-8.49h-4.01s-1.88,5.34-1.92,5.62h0Z"/>
          <path d="M83.71,32.97c.13-.12.31-.18.54-.18h4.55l.18-2.74c-1.31-.19-2.84-.21-4.23-.22-1.46.06-3.23-.33-4.32.77-.55.52-.82,1.2-.82,2.03v6.87c0,.84.27,1.51.82,2.03,1.09,1.1,2.86.72,4.32.77,1.39-.02,2.92-.06,4.23-.22l-.18-2.74h-4.55c-.23,0-.41-.06-.54-.18-.13-.12-.2-.28-.2-.47v-1.48h4.64v-2.58h-4.64v-1.2c0-.19.07-.34.2-.47h0Z"/>
          <path d="M100.43,38.44c-.17-1.13-1.02-1.82-2.03-1.93v-.11c1.73-.13,2.55-1.33,2.52-2.93-.01-1.79-.57-2.91-2.25-3.42-.77-.23-1.76-.34-2.99-.34-1.99,0-3.4-.02-5.26.18v12.34h3.83v-4.52c.51.04,1.48-.11,1.93.17.15.11.26.33.33.68l.81,3.67h4.08l-.97-3.79h0ZM96.88,34.5c-.24.49-.7.47-1.29.49h-1.35v-2.54c.7.08,2.3-.26,2.64.48.16.32.16,1.24,0,1.57h0Z"/>
          <path d="M33.39,34.58h-5.11v2.58h1.39v1.91h-.02c-1.1.15-2.55.41-2.77-1.08-.1-.45-.14-1.09-.14-1.92.02-.98,0-1.8.36-2.53.52-.94,2.07-.54,2.91-.61.91.01,1.67,0,2.59.02l.29-2.79c-2.21-.64-5.85-.83-7.83.1-2.15,1.12-2.35,3.23-2.42,5.8,0,3.23.52,6.48,4.12,6.43,1.15.02,2.22-.38,2.99-1.07.18-.16.78.82.78.82h2.88c0-1.77-.02-5.94-.02-7.66"/>
        </g>
      </g>
    </g>
  </g>
</svg>